<svg xmlns="http://www.w3.org/2000/svg" xmlns:xlink="http://www.w3.org/1999/xlink" width="500" zoomAndPan="magnify" viewBox="0 0 375 374.999991" height="500" preserveAspectRatio="xMidYMid meet" version="1.0"><defs><g/><clipPath id="4da8aba9d4"><path d="M 96 147 L 224 147 L 224 253 L 96 253 Z M 96 147 " clip-rule="nonzero"/></clipPath><clipPath id="bd24beb5b9"><path d="M 78.617188 205.410156 L 185.746094 137.664062 L 229.4375 206.757812 L 122.3125 274.503906 Z M 78.617188 205.410156 " clip-rule="nonzero"/></clipPath><clipPath id="16e174b6e3"><path d="M 78.617188 205.410156 L 185.746094 137.664062 L 229.4375 206.757812 L 122.3125 274.503906 Z M 78.617188 205.410156 " clip-rule="nonzero"/></clipPath><clipPath id="8b99575a45"><path d="M 78.617188 205.410156 L 185.746094 137.664062 L 229.4375 206.757812 L 122.3125 274.503906 Z M 78.617188 205.410156 " clip-rule="nonzero"/></clipPath><clipPath id="25f1a4015b"><path d="M 151 120 L 281 120 L 281 218 L 151 218 Z M 151 120 " clip-rule="nonzero"/></clipPath><clipPath id="237dd2665b"><path d="M 295.449219 174.410156 L 180.808594 228.480469 L 145.9375 154.539062 L 260.574219 100.472656 Z M 295.449219 174.410156 " clip-rule="nonzero"/></clipPath><clipPath id="91618ee5d0"><path d="M 295.449219 174.410156 L 180.808594 228.480469 L 145.9375 154.539062 L 260.574219 100.472656 Z M 295.449219 174.410156 " clip-rule="nonzero"/></clipPath><clipPath id="0bdecd3ee0"><path d="M 295.449219 174.410156 L 180.808594 228.480469 L 145.9375 154.539062 L 260.574219 100.472656 Z M 295.449219 174.410156 " clip-rule="nonzero"/></clipPath><clipPath id="109d08260e"><path d="M 80.648438 223.566406 L 90.398438 223.566406 L 90.398438 233.316406 L 80.648438 233.316406 Z M 80.648438 223.566406 " clip-rule="nonzero"/></clipPath><clipPath id="84e3acbd66"><path d="M 148.910156 133.488281 L 161.660156 133.488281 L 161.660156 146.238281 L 148.910156 146.238281 Z M 148.910156 133.488281 " clip-rule="nonzero"/></clipPath><clipPath id="a950e71f93"><path d="M 283.484375 175.304688 L 294.734375 175.304688 L 294.734375 186.554688 L 283.484375 186.554688 Z M 283.484375 175.304688 " clip-rule="nonzero"/></clipPath></defs><path stroke-linecap="butt" transform="matrix(1.48716, 0, 0, 1.48716, 22.896258, 139.571768)" fill="none" stroke-linejoin="miter" d="M 57.640674 51.352656 C 66.991548 51.352656 75.331162 44.570646 78.913913 26.659519 C 79.200218 25.251635 80.760448 25.251635 80.594969 26.824998 C 80.145812 31.130078 79.925173 35.668929 79.925173 39.430292 C 79.925173 45.471587 81.264764 48.999178 85.244139 48.999178 C 87.883923 48.999178 90.111322 47.207803 90.95973 42.83443 C 93.707206 27.999111 98.122604 17.636977 104.289979 17.636977 C 105.737263 17.636977 105.519251 18.758556 107.365786 18.758556 C 111.397694 18.758556 113.299388 16.515397 113.299388 13.098125 C 113.299388 10.18517 111.00107 7.272215 105.408932 7.272215 C 94.883945 7.272215 89.94847 18.08876 88.77173 28.616374 C 88.606251 30.008498 87.035515 30.352589 87.035515 28.616374 C 87.035515 12.880113 81.661389 7.340508 72.925151 7.340508 C 62.056073 7.340508 56.12247 14.109386 56.12247 21.506032 C 56.12247 26.932691 59.37689 30.405122 63.792288 30.405122 C 68.782924 30.405122 71.477866 25.989724 70.46398 23.694032 C 68.838083 23.694032 67.606184 22.175828 67.606184 20.2216 C 67.606184 17.692136 69.563039 16.242225 71.751038 16.242225 C 74.10189 16.242225 75.496641 17.868122 75.496641 20.891396 C 75.496641 26.932691 69.739024 37.638917 61.89322 37.638917 C 58.651934 37.638917 56.23279 35.957861 56.23279 33.483556 C 56.23279 33.100065 55.849299 32.81376 55.397515 32.81376 C 50.913823 32.81376 47.948335 37.352612 47.948335 41.946623 C 47.948335 46.593167 51.147595 51.352656 57.640674 51.352656 Z M 106.861469 48.999178 C 113.354548 48.999178 119.28815 44.187155 124.223626 35.054293 C 124.840889 33.987873 122.597729 32.306817 121.694162 33.659542 C 119.180458 37.515464 114.641607 39.485452 110.840844 39.485452 C 107.641584 39.485452 105.014934 38.471565 105.014934 36.517337 C 105.014934 35.779248 105.577037 35.616396 105.973661 35.834408 C 107.258093 36.572497 108.760537 36.735349 110.3339 36.735349 C 115.815719 36.735349 119.34331 32.141338 119.34331 28.054271 C 119.34331 24.363827 117.060751 20.999089 111.852104 20.999089 C 95.774379 20.999089 91.125209 48.999178 106.861469 48.999178 Z M 108.88399 32.537962 C 107.079481 32.537962 106.246833 31.471542 106.246833 30.24227 C 106.246833 28.724066 107.586425 27.09817 109.774424 27.09817 C 111.51064 27.09817 112.343288 28.16459 112.343288 29.393862 C 112.343288 30.801747 111.058856 32.537962 108.88399 32.537962 Z M 153.006457 34.549976 C 153.006457 34.043033 152.391821 32.866293 151.54604 32.866293 C 151.217708 32.866293 151.107389 32.593122 150.3693 33.659542 C 149.137401 35.506077 147.348653 37.638917 144.380538 37.638917 C 141.864207 37.638917 139.458196 36.120713 139.458196 33.262918 C 139.458196 31.074918 140.797788 29.012998 142.809802 29.012998 C 144.546017 29.012998 144.722003 30.570601 145.391798 30.570601 C 147.020322 30.570601 148.304753 27.549954 148.304753 25.141316 C 148.304753 22.790464 147.072855 20.999089 144.270219 20.999089 C 140.511483 20.999089 137.490835 24.185215 136.040924 28.10943 C 135.930605 24.308668 134.194389 20.999089 131.050289 20.999089 C 126.020254 20.999089 124.55721 29.517315 121.699415 33.659542 L 124.228879 35.054293 C 125.62363 32.361977 127.304686 28.902679 129.821017 28.902679 C 131.446913 28.902679 132.171869 30.352589 132.171869 32.196498 C 132.171869 34.602509 130.99513 37.638917 127.75647 37.638917 C 121.137312 37.638917 118.89678 48.999178 125.334699 48.999178 C 129.369233 48.999178 132.116709 45.02243 133.690073 41.221667 C 133.852925 45.747385 134.919345 48.999178 138.446936 48.999178 C 145.160653 48.999178 151.598573 37.242292 152.898764 35.054293 L 153.171936 34.549976 C 153.171936 34.549976 153.006457 34.836281 153.006457 34.549976 Z M 154.745299 48.999178 C 162.811742 48.999178 167.119448 38.253553 168.800504 35.054293 C 169.362607 33.987873 167.174607 32.361977 166.27104 33.659542 C 165.16522 35.395757 163.360711 36.449044 161.130686 36.449044 C 157.821106 36.449044 156.084891 33.987873 157.26163 30.079418 C 158.32805 26.318055 158.656381 26.207736 163.865028 26.207736 C 166.108187 26.207736 166.777983 21.054248 165.272913 21.054248 L 162.362584 21.054248 C 161.296164 21.054248 161.459017 20.098148 162.307425 18.306772 C 164.04364 14.779181 163.305552 13.042966 161.241005 13.042966 C 159.83312 13.042966 158.601222 13.549909 157.26163 16.801702 C 156.481515 18.813716 154.692766 21.054248 151.438347 21.054248 C 150.151288 21.054248 150.206448 25.361954 153.447734 25.361954 C 152.052983 29.23101 150.821084 32.537962 149.864984 35.340598 C 147.348653 42.506099 148.470232 48.999178 154.745299 48.999178 Z M 154.745299 48.999178 " stroke="#000000" stroke-width="14.7" stroke-opacity="1" stroke-miterlimit="4"/><g fill="#000000" fill-opacity="1"><g transform="translate(98.36965, 212.442629)"><g><path d="M 10.242188 3.496094 C 24.152344 3.496094 36.558594 -6.578125 41.890625 -33.230469 C 42.308594 -35.3125 44.636719 -35.3125 44.390625 -32.980469 C 43.722656 -26.566406 43.390625 -19.820312 43.390625 -14.242188 C 43.390625 -5.246094 45.386719 0 51.300781 0 C 55.214844 0 58.546875 -2.664062 59.796875 -9.160156 C 63.875 -31.230469 70.457031 -46.636719 79.617188 -46.636719 C 81.78125 -46.636719 81.449219 -44.972656 84.195312 -44.972656 C 90.191406 -44.972656 93.023438 -48.304688 93.023438 -53.382812 C 93.023438 -57.714844 89.609375 -62.042969 81.28125 -62.042969 C 65.625 -62.042969 58.296875 -45.972656 56.546875 -30.3125 C 56.296875 -28.230469 53.964844 -27.734375 53.964844 -30.3125 C 53.964844 -53.714844 45.972656 -61.960938 32.980469 -61.960938 C 16.824219 -61.960938 7.996094 -51.882812 7.996094 -40.890625 C 7.996094 -32.8125 12.824219 -27.648438 19.40625 -27.648438 C 26.816406 -27.648438 30.8125 -34.226562 29.316406 -37.644531 C 26.898438 -37.644531 25.066406 -39.890625 25.066406 -42.804688 C 25.066406 -46.554688 27.980469 -48.71875 31.230469 -48.71875 C 34.726562 -48.71875 36.808594 -46.304688 36.808594 -41.808594 C 36.808594 -32.8125 28.230469 -16.90625 16.574219 -16.90625 C 11.742188 -16.90625 8.160156 -19.40625 8.160156 -23.070312 C 8.160156 -23.652344 7.578125 -24.066406 6.914062 -24.066406 C 0.25 -24.066406 -4.164062 -17.324219 -4.164062 -10.492188 C -4.164062 -3.582031 0.582031 3.496094 10.242188 3.496094 Z M 10.242188 3.496094 "/></g></g><g transform="translate(166.160374, 212.442629)"><g><path d="M 15.65625 0 C 25.316406 0 34.144531 -7.164062 41.472656 -20.738281 C 42.390625 -22.320312 39.058594 -24.816406 37.726562 -22.820312 C 33.980469 -17.074219 27.234375 -14.15625 21.570312 -14.15625 C 16.824219 -14.15625 12.910156 -15.65625 12.910156 -18.570312 C 12.910156 -19.65625 13.742188 -19.902344 14.324219 -19.570312 C 16.238281 -18.488281 18.488281 -18.238281 20.820312 -18.238281 C 28.980469 -18.238281 34.226562 -25.066406 34.226562 -31.148438 C 34.226562 -36.644531 30.8125 -41.640625 23.070312 -41.640625 C -0.832031 -41.640625 -7.746094 0 15.65625 0 Z M 18.65625 -24.484375 C 15.988281 -24.484375 14.742188 -26.066406 14.742188 -27.898438 C 14.742188 -30.148438 16.738281 -32.5625 19.988281 -32.5625 C 22.570312 -32.5625 23.820312 -30.980469 23.820312 -29.148438 C 23.820312 -27.066406 21.902344 -24.484375 18.65625 -24.484375 Z M 18.65625 -24.484375 "/></g></g></g><g fill="#000000" fill-opacity="1"><g transform="translate(201.971199, 212.442629)"><g><path d="M 48.46875 -21.488281 C 48.46875 -22.234375 47.554688 -23.984375 46.304688 -23.984375 C 45.804688 -23.984375 45.636719 -24.402344 44.554688 -22.820312 C 42.722656 -20.070312 40.058594 -16.90625 35.644531 -16.90625 C 31.898438 -16.90625 28.316406 -19.15625 28.316406 -23.402344 C 28.316406 -26.648438 30.3125 -29.730469 33.3125 -29.730469 C 35.894531 -29.730469 36.144531 -27.398438 37.144531 -27.398438 C 39.558594 -27.398438 41.472656 -31.898438 41.472656 -35.476562 C 41.472656 -38.976562 39.640625 -41.640625 35.476562 -41.640625 C 29.898438 -41.640625 25.402344 -36.894531 23.234375 -31.0625 C 23.070312 -36.726562 20.488281 -41.640625 15.824219 -41.640625 C 8.328125 -41.640625 6.164062 -28.980469 1.914062 -22.820312 L 5.664062 -20.738281 C 7.746094 -24.734375 10.242188 -29.898438 13.992188 -29.898438 C 16.40625 -29.898438 17.488281 -27.734375 17.488281 -24.984375 C 17.488281 -21.402344 15.738281 -16.90625 10.910156 -16.90625 C 1.082031 -16.90625 -2.25 0 7.328125 0 C 13.324219 0 17.40625 -5.914062 19.738281 -11.574219 C 19.988281 -4.832031 21.570312 0 26.816406 0 C 36.808594 0 46.386719 -17.488281 48.304688 -20.738281 L 48.71875 -21.488281 C 48.71875 -21.488281 48.46875 -21.070312 48.46875 -21.488281 Z M 48.46875 -21.488281 "/></g></g></g><g fill="#000000" fill-opacity="1"><g transform="translate(244.611065, 212.442629)"><g><path d="M 8.410156 0 C 20.402344 0 26.816406 -15.988281 29.316406 -20.738281 C 30.148438 -22.320312 26.898438 -24.734375 25.566406 -22.820312 C 23.902344 -20.238281 21.238281 -18.65625 17.90625 -18.65625 C 12.992188 -18.65625 10.410156 -22.320312 12.160156 -28.148438 C 13.742188 -33.730469 14.242188 -33.894531 21.984375 -33.894531 C 25.316406 -33.894531 26.316406 -41.558594 24.066406 -41.558594 L 19.738281 -41.558594 C 18.15625 -41.558594 18.40625 -42.972656 19.65625 -45.636719 C 22.234375 -50.882812 21.152344 -53.464844 18.070312 -53.464844 C 15.988281 -53.464844 14.15625 -52.71875 12.160156 -47.886719 C 10.992188 -44.886719 8.328125 -41.558594 3.496094 -41.558594 C 1.582031 -41.558594 1.664062 -35.144531 6.496094 -35.144531 C 4.414062 -29.398438 2.582031 -24.484375 1.164062 -20.320312 C -2.582031 -9.660156 -0.917969 0 8.410156 0 Z M 8.410156 0 "/></g></g></g><g clip-path="url(#4da8aba9d4)"><g clip-path="url(#bd24beb5b9)"><g clip-path="url(#16e174b6e3)"><g clip-path="url(#8b99575a45)"><path fill="#000000" d="M 193.851562 223.488281 C 163.351562 242.777344 130.015625 244.789062 119.390625 227.984375 C 108.765625 211.183594 124.871094 181.925781 155.371094 162.640625 C 167.71875 154.832031 180.527344 149.859375 192.109375 147.816406 C 176.804688 148.734375 158.675781 154.78125 141.355469 165.734375 C 106.726562 187.636719 88.433594 220.855469 100.496094 239.9375 C 112.5625 259.015625 150.417969 256.730469 185.050781 234.832031 C 202.386719 223.867188 215.628906 210.066406 223.015625 196.621094 C 216.203125 206.21875 206.210938 215.675781 193.851562 223.488281 Z M 193.851562 223.488281 " fill-opacity="1" fill-rule="nonzero"/></g></g></g></g><g clip-path="url(#25f1a4015b)"><g clip-path="url(#237dd2665b)"><g clip-path="url(#91618ee5d0)"><g clip-path="url(#0bdecd3ee0)"><path fill="#000000" d="M 183.3125 142.308594 C 215.949219 126.917969 249.28125 129.011719 257.761719 146.996094 C 266.242188 164.976562 246.660156 192.03125 214.023438 207.425781 C 200.808594 213.65625 187.484375 217.019531 175.742188 217.625 C 191.042969 218.589844 209.773438 214.816406 228.3125 206.074219 C 265.371094 188.597656 287.605469 157.875 277.976562 137.457031 C 268.347656 117.039062 230.5 114.65625 193.4375 132.136719 C 174.886719 140.886719 160.046875 152.957031 151.0625 165.390625 C 159.003906 156.699219 170.085938 148.546875 183.3125 142.308594 Z M 183.3125 142.308594 " fill-opacity="1" fill-rule="nonzero"/></g></g></g></g><path stroke-linecap="butt" transform="matrix(0.576522, 0, 0, 0.576522, 101.426167, 170.087641)" fill="none" stroke-linejoin="miter" d="M 85.635436 33.65795 C 84.409063 35.507674 82.728727 36.51723 81.061944 36.51723 C 78.52789 36.51723 77.640294 34.891099 77.640294 32.59419 C 77.640294 29.17254 79.483242 19.551267 82.288317 19.551267 C 83.0133 19.551267 83.521466 20.167841 84.354858 20.167841 C 86.319766 20.167841 88.494716 16.461618 88.494716 13.100948 C 88.494716 10.079056 86.882136 7.341736 82.559339 7.341736 C 76.35294 7.341736 69.286047 14.835488 65.593376 22.627364 C 64.638024 13.331317 59.265017 7.341736 49.52856 7.341736 C 38.267605 7.341736 31.044875 14.903243 31.044875 23.352347 C 31.044875 28.616945 34.29036 32.086024 38.714791 32.086024 C 43.708367 32.086024 46.384707 27.654818 45.375151 25.364684 C 43.762572 25.364684 42.529422 23.860513 42.529422 21.902381 C 42.529422 18.358771 44.988945 16.299005 47.672061 16.299005 C 50.09093 16.299005 51.540897 17.925136 51.540897 20.892824 C 51.540897 26.93661 45.768133 37.64197 37.935603 37.64197 C 34.683342 37.64197 32.278024 35.95486 32.278024 33.481786 C 32.278024 33.102356 31.878267 32.811007 31.444632 32.811007 C 26.959221 32.811007 23.991533 37.350622 23.991533 41.944441 C 23.991533 46.592464 27.176039 51.348897 33.673786 51.348897 C 43.200201 51.348897 51.595101 44.295555 55.287773 26.096443 C 55.518141 25.032682 56.080511 24.524516 56.859699 24.524516 C 57.584682 24.524516 58.201257 25.032682 58.201257 27.221183 C 58.201257 32.363821 54.955771 38.637975 54.955771 42.777833 C 54.955771 45.074743 55.850143 46.307892 59.373426 46.307892 C 61.236701 46.307892 63.242262 45.582908 64.258593 41.727624 C 67.890285 27.546409 69.6316 24.693905 71.582957 24.693905 C 72.267287 24.693905 72.653493 25.086886 72.653493 25.920278 C 72.653493 28.162984 68.723677 34.437138 68.723677 40.826476 C 68.723677 45.921686 70.857974 48.997783 75.004607 48.997783 C 82.559339 48.997783 86.37397 38.129809 88.16949 35.053712 C 87.661324 33.989952 86.43495 32.485781 85.635436 33.65795 Z M 112.303979 33.65795 C 110.962421 35.616083 109.444699 36.39527 107.818568 36.39527 L 107.432362 36.39527 C 107.994733 34.545546 108.27253 32.59419 108.27253 30.636057 C 108.27253 23.569165 104.688267 21.001233 100.094448 21.001233 C 91.191382 21.001233 84.700411 31.184876 84.700411 39.593327 C 84.700411 45.420295 88.338878 48.997783 93.366332 48.997783 C 97.580721 48.997783 101.544414 46.53826 104.342714 42.723629 L 105.013493 42.723629 C 110.454255 42.723629 113.191575 38.475362 114.817706 35.053712 C 115.43428 33.766359 112.974758 32.702598 112.303979 33.65795 Z M 96.564389 37.404826 C 94.430093 37.404826 93.650905 36.009064 93.650905 34.382933 C 93.650905 31.923411 95.500629 29.17254 98.244724 29.17254 C 100.433225 29.17254 101.320821 30.514098 101.320821 32.140228 C 101.320821 34.491342 99.369465 37.404826 96.564389 37.404826 Z M 117.561801 48.997783 C 120.976676 48.997783 124.235713 45.366091 126.532622 40.826476 L 126.74944 40.826476 C 126.132865 45.4745 127.982589 48.997783 131.560076 48.997783 C 137.780026 48.997783 140.856123 40.264106 143.606994 35.053712 C 144.169364 33.989952 141.926659 32.309617 141.093267 33.65795 C 139.968527 35.453469 138.559213 36.51723 136.662061 36.51723 C 134.202538 36.51723 133.585964 34.274525 135.483116 30.188871 L 141.81825 14.002096 C 143.268217 10.81759 142.489029 8.737498 140.530897 8.737498 C 138.850562 8.737498 136.77047 9.69285 134.649724 14.835488 C 132.230855 20.601476 132.230855 23.691124 131.343259 23.691124 C 129.879741 23.691124 130.11011 21.001233 125.631475 21.001233 C 116.003426 21.001233 111.179238 32.756803 111.179238 41.043294 C 111.179238 45.528704 113.144146 48.997783 117.561801 48.997783 Z M 122.663786 37.404826 C 120.52949 37.404826 119.750302 36.009064 119.750302 34.382933 C 119.750302 31.923411 121.59325 29.17254 124.344121 29.17254 C 126.532622 29.17254 127.420218 30.514098 127.420218 32.140228 C 127.420218 34.491342 125.462086 37.404826 122.663786 37.404826 Z M 145.727739 48.997783 C 149.71176 48.997783 153.07243 45.366091 155.315135 40.826476 L 155.531952 40.826476 C 154.861173 45.4745 156.487304 48.997783 160.342589 48.997783 C 166.569314 48.997783 169.645411 40.264106 172.389507 35.053712 C 172.951877 33.989952 170.709172 32.309617 169.87578 33.65795 C 168.751039 35.453469 167.348502 36.51723 165.444574 36.51723 C 162.985051 36.51723 162.368477 34.274525 164.272405 30.188871 C 165.498778 26.93661 166.962296 25.195295 166.962296 23.081325 C 166.962296 21.834625 166.45413 21.001233 164.997388 21.001233 C 162.368477 21.001233 161.975495 23.13553 160.125771 23.13553 C 158.662254 23.13553 158.899398 21.001233 154.413987 21.001233 C 144.785939 21.001233 139.961751 32.756803 139.961751 40.548679 C 139.961751 45.528704 141.926659 48.997783 145.727739 48.997783 Z M 151.33789 37.404826 C 149.596575 37.404826 148.532815 36.286861 148.532815 34.382933 C 148.532815 31.923411 150.375763 29.17254 153.289247 29.17254 C 155.084766 29.17254 156.202731 30.29728 156.202731 32.140228 C 156.202731 34.491342 154.251374 37.404826 151.33789 37.404826 Z M 212.426199 4.922866 C 211.030437 4.922866 209.065529 5.552992 205.027304 5.552992 C 201.172019 5.552992 198.820906 5.09903 193.617287 5.09903 C 178.887254 5.09903 170.770152 11.867799 170.770152 19.822288 C 170.770152 23.914717 173.17547 27.600613 177.769289 27.600613 C 183.1965 27.600613 186.109984 22.789977 185.093653 20.330454 C 183.867279 20.330454 182.979683 19.205714 182.979683 17.694768 C 182.979683 14.110505 187.451542 12.606334 192.438343 12.606334 C 198.820906 12.606334 200.508016 15.519818 205.765839 15.519818 C 211.484398 15.519818 214.6147 11.535798 214.6147 7.219776 C 214.6147 5.715605 214.106534 4.922866 212.426199 4.922866 Z M 203.306316 25.81187 C 202.066391 25.81187 200.216668 25.866074 197.811349 25.920278 C 198.590537 23.63692 199.383276 21.272255 200.162463 18.758528 C 200.779038 16.908804 200.054055 15.736635 197.594532 15.736635 C 195.914197 15.736635 194.681048 16.461618 193.942514 18.426526 C 193.000713 20.784416 192.045361 23.460756 191.096785 26.042238 L 188.745671 26.042238 C 186.448761 26.042238 185.439205 27.275387 185.439205 28.901518 C 185.439205 30.080463 186.001576 30.968059 187.336358 30.968059 C 187.844524 30.968059 188.352689 31.022263 188.908284 31.076468 C 186.109984 35.724491 182.308904 37.64197 179.39542 37.64197 C 176.197363 37.64197 174.063066 35.95486 174.063066 33.481786 C 174.063066 33.102356 173.683636 32.811007 173.229674 32.811007 C 168.744264 32.811007 165.776575 37.350622 165.776575 41.944441 C 165.776575 46.592464 168.852673 51.348897 176.644549 51.348897 C 183.650462 51.348897 189.633267 46.700873 193.888309 36.51723 C 194.504884 35.107917 195.060478 33.65795 195.568644 32.194433 C 197.032162 32.363821 198.590537 32.485781 200.392832 32.485781 C 204.309097 32.485781 206.043636 29.789114 206.043636 27.891962 C 206.043636 26.713017 205.53547 25.81187 203.306316 25.81187 Z M 217.243611 18.704324 C 220.150319 18.704324 222.447229 17.579583 222.792782 14.110505 C 223.063803 10.63465 220.766894 9.57089 217.907614 9.57089 C 214.831517 9.57089 212.31779 10.743059 212.31779 14.727079 C 212.31779 17.694768 214.560495 18.704324 217.243611 18.704324 Z M 211.037212 48.997783 C 218.253167 48.997783 221.83743 38.021401 223.626174 34.999508 C 224.188544 33.989952 222.000043 32.309617 221.112447 33.65795 C 219.987706 35.345061 218.923946 36.449474 217.243611 36.449474 C 215.73944 36.449474 214.723108 35.507674 214.723108 33.65795 C 214.723108 30.636057 217.243611 26.93661 217.243611 23.51496 C 217.243611 21.726216 216.518628 21.001233 215.339683 21.001233 C 212.155177 21.001233 209.858267 25.540848 207.276785 33.65795 C 206.443393 36.341066 205.881023 39.362959 205.881023 41.998645 C 205.881023 45.921686 207.276785 48.997783 211.037212 48.997783 Z M 223.294172 48.997783 C 227.163008 48.997783 227.887991 45.921686 227.887991 43.069181 L 227.887991 40.548679 C 227.887991 35.561878 230.686291 30.913855 233.931777 30.913855 C 235.212355 30.913855 236.059298 31.584634 236.059298 32.865211 C 236.059298 35.162121 233.708184 38.922548 233.708184 43.17759 C 233.708184 46.307892 234.941333 48.997783 238.471391 48.997783 C 246.026124 48.997783 249.840755 38.129809 251.636274 35.053712 C 252.252849 33.989952 250.010144 32.309617 249.102221 33.65795 C 247.984256 35.345061 246.934046 36.51723 245.246936 36.51723 C 243.403988 36.51723 242.557045 35.616083 242.557045 33.712155 C 242.557045 30.913855 244.345788 29.118335 244.345788 26.157423 C 244.345788 23.352347 242.719658 21.001233 239.318335 21.001233 C 236.838485 21.001233 234.59578 22.173402 232.536015 24.185739 C 230.740495 25.988034 229.62253 25.303704 229.62253 23.13553 C 229.62253 22.010789 229.283753 21.001233 227.779582 21.001233 C 225.69949 21.001233 222.894415 27.099223 221.051467 33.65795 C 219.764113 38.251769 219.201743 42.276443 219.201743 44.912129 C 219.201743 47.263243 220.665261 48.997783 223.294172 48.997783 Z M 254.366819 48.997783 C 257.788469 48.997783 261.04073 45.366091 263.33764 40.826476 L 263.554457 40.826476 C 262.944658 45.4745 264.787606 48.997783 268.371869 48.997783 C 274.591819 48.997783 277.667916 40.264106 280.412011 35.053712 C 280.974382 33.989952 278.731676 32.309617 277.898284 33.65795 C 276.78032 35.453469 275.371006 36.51723 273.467078 36.51723 C 271.007556 36.51723 270.390981 34.274525 272.294909 30.188871 L 278.623268 14.002096 C 280.073234 10.81759 279.294047 8.737498 277.335914 8.737498 C 275.655579 8.737498 273.582263 9.69285 271.461517 14.835488 C 269.042648 20.601476 269.042648 23.691124 268.148276 23.691124 C 266.691534 23.691124 266.921902 21.001233 262.436492 21.001233 C 252.808443 21.001233 247.984256 32.756803 247.984256 41.043294 C 247.984256 45.528704 249.955939 48.997783 254.366819 48.997783 Z M 259.468804 37.404826 C 257.334507 37.404826 256.55532 36.009064 256.55532 34.382933 C 256.55532 31.923411 258.405043 29.17254 261.149139 29.17254 C 263.33764 29.17254 264.225236 30.514098 264.225236 32.140228 C 264.225236 34.491342 262.273879 37.404826 259.468804 37.404826 Z M 259.468804 37.404826 " stroke="#000000" stroke-width="8.33" stroke-opacity="1" stroke-miterlimit="4"/><g fill="#ffffff" fill-opacity="1"><g transform="translate(116.676974, 198.337216)"><g><path d="M 34.125 -8.847656 C 33.414062 -7.78125 32.445312 -7.199219 31.476562 -7.199219 C 30.023438 -7.199219 29.507812 -8.136719 29.507812 -9.460938 C 29.507812 -11.429688 30.574219 -16.980469 32.1875 -16.980469 C 32.609375 -16.980469 32.898438 -16.625 33.382812 -16.625 C 34.511719 -16.625 35.773438 -18.757812 35.773438 -20.695312 C 35.773438 -22.4375 34.835938 -24.019531 32.351562 -24.019531 C 28.765625 -24.019531 24.699219 -19.695312 22.566406 -15.207031 C 22.019531 -20.566406 18.917969 -24.019531 13.300781 -24.019531 C 6.8125 -24.019531 2.648438 -19.660156 2.648438 -14.785156 C 2.648438 -11.75 4.519531 -9.75 7.070312 -9.75 C 9.945312 -9.75 11.492188 -12.300781 10.914062 -13.625 C 9.976562 -13.625 9.265625 -14.496094 9.265625 -15.625 C 9.265625 -17.660156 10.6875 -18.855469 12.234375 -18.855469 C 13.625 -18.855469 14.464844 -17.917969 14.464844 -16.207031 C 14.464844 -12.71875 11.136719 -6.554688 6.617188 -6.554688 C 4.746094 -6.554688 3.359375 -7.523438 3.359375 -8.941406 C 3.359375 -9.167969 3.132812 -9.332031 2.875 -9.332031 C 0.289062 -9.332031 -1.421875 -6.714844 -1.421875 -4.066406 C -1.421875 -1.386719 0.417969 1.355469 4.164062 1.355469 C 9.652344 1.355469 14.496094 -2.710938 16.625 -13.203125 C 16.757812 -13.816406 17.078125 -14.109375 17.53125 -14.109375 C 17.949219 -14.109375 18.304688 -13.816406 18.304688 -12.558594 C 18.304688 -9.589844 16.433594 -5.972656 16.433594 -3.582031 C 16.433594 -2.261719 16.949219 -1.550781 18.984375 -1.550781 C 20.050781 -1.550781 21.210938 -1.96875 21.792969 -4.195312 C 23.890625 -12.367188 24.890625 -14.011719 26.023438 -14.011719 C 26.410156 -14.011719 26.636719 -13.785156 26.636719 -13.300781 C 26.636719 -12.011719 24.375 -8.394531 24.375 -4.714844 C 24.375 -1.777344 25.601562 0 27.992188 0 C 32.351562 0 34.546875 -6.261719 35.578125 -8.039062 C 35.289062 -8.652344 34.578125 -9.523438 34.125 -8.847656 Z M 34.125 -8.847656 "/></g></g></g><g fill="#ffffff" fill-opacity="1"><g transform="translate(150.059896, 198.337216)"><g><path d="M 16.109375 -8.847656 C 15.335938 -7.714844 14.464844 -7.265625 13.527344 -7.265625 L 13.300781 -7.265625 C 13.625 -8.328125 13.785156 -9.460938 13.785156 -10.589844 C 13.785156 -14.65625 11.71875 -16.144531 9.070312 -16.144531 C 3.9375 -16.144531 0.195312 -10.265625 0.195312 -5.425781 C 0.195312 -2.066406 2.292969 0 5.199219 0 C 7.621094 0 9.910156 -1.421875 11.527344 -3.617188 L 11.914062 -3.617188 C 15.042969 -3.617188 16.625 -6.070312 17.5625 -8.039062 C 17.917969 -8.78125 16.496094 -9.394531 16.109375 -8.847656 Z M 7.039062 -6.683594 C 5.8125 -6.683594 5.359375 -7.488281 5.359375 -8.425781 C 5.359375 -9.847656 6.425781 -11.429688 8.007812 -11.429688 C 9.265625 -11.429688 9.78125 -10.652344 9.78125 -9.71875 C 9.78125 -8.363281 8.652344 -6.683594 7.039062 -6.683594 Z M 7.039062 -6.683594 "/></g></g></g><g fill="#ffffff" fill-opacity="1"><g transform="translate(165.42766, 198.337216)"><g><path d="M 3.777344 0 C 5.746094 0 7.621094 -2.097656 8.941406 -4.714844 L 9.070312 -4.714844 C 8.71875 -2.035156 9.78125 0 11.847656 0 C 15.433594 0 17.207031 -5.035156 18.789062 -8.039062 C 19.113281 -8.652344 17.820312 -9.621094 17.335938 -8.847656 C 16.691406 -7.8125 15.882812 -7.199219 14.785156 -7.199219 C 13.367188 -7.199219 13.011719 -8.492188 14.109375 -10.847656 L 17.757812 -20.179688 C 18.597656 -22.019531 18.144531 -23.214844 17.015625 -23.214844 C 16.046875 -23.214844 14.851562 -22.664062 13.625 -19.695312 C 12.234375 -16.367188 12.234375 -14.59375 11.71875 -14.59375 C 10.878906 -14.59375 11.007812 -16.144531 8.425781 -16.144531 C 2.875 -16.144531 0.0976562 -9.363281 0.0976562 -4.585938 C 0.0976562 -2 1.226562 0 3.777344 0 Z M 6.714844 -6.683594 C 5.488281 -6.683594 5.035156 -7.488281 5.035156 -8.425781 C 5.035156 -9.847656 6.101562 -11.429688 7.683594 -11.429688 C 8.941406 -11.429688 9.460938 -10.652344 9.460938 -9.71875 C 9.460938 -8.363281 8.328125 -6.683594 6.714844 -6.683594 Z M 6.714844 -6.683594 "/></g></g></g><g fill="#ffffff" fill-opacity="1"><g transform="translate(182.022265, 198.337216)"><g><path d="M 3.421875 0 C 5.714844 0 7.652344 -2.097656 8.941406 -4.714844 L 9.070312 -4.714844 C 8.683594 -2.035156 9.621094 0 11.847656 0 C 15.433594 0 17.207031 -5.035156 18.789062 -8.039062 C 19.113281 -8.652344 17.820312 -9.621094 17.335938 -8.847656 C 16.691406 -7.8125 15.882812 -7.199219 14.785156 -7.199219 C 13.367188 -7.199219 13.011719 -8.492188 14.109375 -10.847656 C 14.820312 -12.71875 15.660156 -13.722656 15.660156 -14.949219 C 15.660156 -15.660156 15.367188 -16.144531 14.527344 -16.144531 C 13.011719 -16.144531 12.785156 -14.914062 11.71875 -14.914062 C 10.878906 -14.914062 11.007812 -16.144531 8.425781 -16.144531 C 2.875 -16.144531 0.0976562 -9.363281 0.0976562 -4.875 C 0.0976562 -2 1.226562 0 3.421875 0 Z M 6.652344 -6.683594 C 5.648438 -6.683594 5.035156 -7.328125 5.035156 -8.425781 C 5.035156 -9.847656 6.101562 -11.429688 7.78125 -11.429688 C 8.8125 -11.429688 9.460938 -10.785156 9.460938 -9.71875 C 9.460938 -8.363281 8.328125 -6.683594 6.652344 -6.683594 Z M 6.652344 -6.683594 "/></g></g></g><g fill="#ffffff" fill-opacity="1"><g transform="translate(198.616871, 198.337216)"><g><path d="M 25.28125 -25.410156 C 24.472656 -25.410156 23.34375 -25.054688 21.019531 -25.054688 C 18.789062 -25.054688 17.433594 -25.3125 14.429688 -25.3125 C 5.941406 -25.3125 1.257812 -21.40625 1.257812 -16.820312 C 1.257812 -14.464844 2.648438 -12.332031 5.292969 -12.332031 C 8.425781 -12.332031 10.105469 -15.109375 9.523438 -16.53125 C 8.8125 -16.53125 8.296875 -17.175781 8.296875 -18.046875 C 8.296875 -20.113281 10.878906 -20.984375 13.753906 -20.984375 C 17.433594 -20.984375 18.402344 -19.304688 21.4375 -19.304688 C 24.730469 -19.304688 26.539062 -21.597656 26.539062 -24.085938 C 26.539062 -24.957031 26.246094 -25.410156 25.28125 -25.410156 Z M 20.015625 -13.367188 C 19.304688 -13.367188 18.242188 -13.332031 16.851562 -13.300781 C 17.304688 -14.625 17.757812 -15.980469 18.207031 -17.433594 C 18.5625 -18.5 18.144531 -19.175781 16.722656 -19.175781 C 15.753906 -19.175781 15.042969 -18.757812 14.625 -17.628906 C 14.078125 -16.273438 13.527344 -14.722656 12.980469 -13.238281 L 11.621094 -13.238281 C 10.300781 -13.238281 9.71875 -12.527344 9.71875 -11.589844 C 9.71875 -10.914062 10.039062 -10.394531 10.816406 -10.394531 C 11.105469 -10.394531 11.398438 -10.363281 11.71875 -10.332031 C 10.105469 -7.652344 7.910156 -6.554688 6.230469 -6.554688 C 4.390625 -6.554688 3.164062 -7.523438 3.164062 -8.941406 C 3.164062 -9.167969 2.9375 -9.332031 2.679688 -9.332031 C 0.0976562 -9.332031 -1.613281 -6.714844 -1.613281 -4.066406 C -1.613281 -1.386719 0.160156 1.355469 4.648438 1.355469 C 8.683594 1.355469 12.140625 -1.324219 14.59375 -7.199219 C 14.949219 -8.007812 15.269531 -8.847656 15.5625 -9.6875 C 16.402344 -9.589844 17.304688 -9.523438 18.339844 -9.523438 C 20.597656 -9.523438 21.597656 -11.074219 21.597656 -12.171875 C 21.597656 -12.847656 21.308594 -13.367188 20.015625 -13.367188 Z M 20.015625 -13.367188 "/></g></g></g><g fill="#ffffff" fill-opacity="1"><g transform="translate(220.183398, 198.337216)"><g><path d="M 6.488281 -17.464844 C 8.167969 -17.464844 9.492188 -18.113281 9.6875 -20.113281 C 9.847656 -22.117188 8.523438 -22.730469 6.875 -22.730469 C 5.101562 -22.730469 3.648438 -22.050781 3.648438 -19.757812 C 3.648438 -18.046875 4.941406 -17.464844 6.488281 -17.464844 Z M 2.90625 0 C 7.070312 0 9.136719 -6.328125 10.167969 -8.070312 C 10.492188 -8.652344 9.234375 -9.621094 8.71875 -8.847656 C 8.070312 -7.878906 7.457031 -7.230469 6.488281 -7.230469 C 5.617188 -7.230469 5.035156 -7.78125 5.035156 -8.847656 C 5.035156 -10.589844 6.488281 -12.71875 6.488281 -14.691406 C 6.488281 -15.722656 6.070312 -16.144531 5.390625 -16.144531 C 3.550781 -16.144531 2.226562 -13.527344 0.742188 -8.847656 C 0.257812 -7.296875 -0.0664062 -5.554688 -0.0664062 -4.035156 C -0.0664062 -1.777344 0.742188 0 2.90625 0 Z M 2.90625 0 "/></g></g></g><g fill="#ffffff" fill-opacity="1"><g transform="translate(228.125565, 198.337216)"><g><path d="M 2.035156 0 C 4.261719 0 4.679688 -1.777344 4.679688 -3.421875 L 4.679688 -4.875 C 4.679688 -7.75 6.296875 -10.429688 8.167969 -10.429688 C 8.910156 -10.429688 9.394531 -10.039062 9.394531 -9.296875 C 9.394531 -7.972656 8.039062 -5.8125 8.039062 -3.359375 C 8.039062 -1.550781 8.75 0 10.785156 0 C 15.140625 0 17.335938 -6.261719 18.371094 -8.039062 C 18.726562 -8.652344 17.433594 -9.621094 16.917969 -8.847656 C 16.273438 -7.878906 15.660156 -7.199219 14.691406 -7.199219 C 13.625 -7.199219 13.140625 -7.714844 13.140625 -8.8125 C 13.140625 -10.429688 14.171875 -11.460938 14.171875 -13.171875 C 14.171875 -14.785156 13.238281 -16.144531 11.265625 -16.144531 C 9.847656 -16.144531 8.554688 -15.464844 7.359375 -14.300781 C 6.328125 -13.269531 5.683594 -13.65625 5.683594 -14.914062 C 5.683594 -15.5625 5.488281 -16.144531 4.617188 -16.144531 C 3.421875 -16.144531 1.808594 -12.625 0.742188 -8.847656 C 0 -6.199219 -0.324219 -3.875 -0.324219 -2.355469 C -0.324219 -1 0.515625 0 2.035156 0 Z M 2.035156 0 "/></g></g></g><g fill="#ffffff" fill-opacity="1"><g transform="translate(244.300464, 198.337216)"><g><path d="M 3.777344 0 C 5.746094 0 7.621094 -2.097656 8.941406 -4.714844 L 9.070312 -4.714844 C 8.71875 -2.035156 9.78125 0 11.847656 0 C 15.433594 0 17.207031 -5.035156 18.789062 -8.039062 C 19.113281 -8.652344 17.820312 -9.621094 17.335938 -8.847656 C 16.691406 -7.8125 15.882812 -7.199219 14.785156 -7.199219 C 13.367188 -7.199219 13.011719 -8.492188 14.109375 -10.847656 L 17.757812 -20.179688 C 18.597656 -22.019531 18.144531 -23.214844 17.015625 -23.214844 C 16.046875 -23.214844 14.851562 -22.664062 13.625 -19.695312 C 12.234375 -16.367188 12.234375 -14.59375 11.71875 -14.59375 C 10.878906 -14.59375 11.007812 -16.144531 8.425781 -16.144531 C 2.875 -16.144531 0.0976562 -9.363281 0.0976562 -4.585938 C 0.0976562 -2 1.226562 0 3.777344 0 Z M 6.714844 -6.683594 C 5.488281 -6.683594 5.035156 -7.488281 5.035156 -8.425781 C 5.035156 -9.847656 6.101562 -11.429688 7.683594 -11.429688 C 8.941406 -11.429688 9.460938 -10.652344 9.460938 -9.71875 C 9.460938 -8.363281 8.328125 -6.683594 6.714844 -6.683594 Z M 6.714844 -6.683594 "/></g></g></g><g clip-path="url(#109d08260e)"><path fill="#000000" d="M 89.238281 229.019531 L 90.398438 228.4375 L 89.238281 227.859375 C 87.882812 227.179688 86.78125 226.082031 86.105469 224.726562 L 85.523438 223.5625 L 84.945312 224.726562 C 84.265625 226.082031 83.167969 227.179688 81.808594 227.859375 L 80.648438 228.4375 L 81.808594 229.019531 C 83.167969 229.699219 84.265625 230.796875 84.945312 232.152344 L 85.523438 233.3125 L 86.105469 232.152344 C 86.78125 230.796875 87.882812 229.699219 89.238281 229.019531 Z M 89.238281 229.019531 " fill-opacity="1" fill-rule="nonzero"/></g><g clip-path="url(#84e3acbd66)"><path fill="#000000" d="M 160.140625 140.621094 L 161.660156 139.863281 L 160.140625 139.105469 C 158.367188 138.21875 156.929688 136.78125 156.042969 135.007812 L 155.285156 133.488281 L 154.527344 135.007812 C 153.640625 136.78125 152.203125 138.21875 150.429688 139.105469 L 148.910156 139.863281 L 150.429688 140.621094 C 152.203125 141.507812 153.640625 142.945312 154.527344 144.71875 L 155.285156 146.238281 L 156.042969 144.71875 C 156.929688 142.945312 158.367188 141.507812 160.140625 140.621094 Z M 160.140625 140.621094 " fill-opacity="1" fill-rule="nonzero"/></g><g clip-path="url(#a950e71f93)"><path fill="#000000" d="M 293.390625 181.597656 L 294.730469 180.925781 L 293.390625 180.257812 C 291.828125 179.476562 290.558594 178.207031 289.777344 176.640625 L 289.105469 175.304688 L 288.4375 176.640625 C 287.65625 178.207031 286.386719 179.476562 284.820312 180.257812 L 283.484375 180.925781 L 284.820312 181.597656 C 286.386719 182.378906 287.65625 183.648438 288.4375 185.210938 L 289.105469 186.550781 L 289.777344 185.210938 C 290.558594 183.648438 291.828125 182.378906 293.390625 181.597656 Z M 293.390625 181.597656 " fill-opacity="1" fill-rule="nonzero"/></g></svg>